<svg xmlns="http://www.w3.org/2000/svg" viewBox="0 0 6672 6330" style="background:#faf8f5;font-family:'Microsoft YaHei',sans-serif;">
    <defs>
        <pattern id="grid" width="30" height="30" patternUnits="userSpaceOnUse">
            <path d="M 30 0 L 0 0 0 30" fill="none" stroke="#f0e8d8" stroke-width="0.5"/>
        </pattern>
    </defs>
    <rect width="6672" height="6330" fill="url(#grid)"/>
    <text x="20" y="35" font-size="20" font-weight="700" fill="#6b5435">襄河·1号 · 云庭 268㎡</text>
    <text x="20" y="60" font-size="13" fill="#999">4室2厅4卫 · 一层一户 · 全套房格局 · 270°IMAX视野</text>
    <rect x="0" y="70" width="87" height="189" fill="#ffe8d8" stroke="#8b6f47" stroke-width="1.2" rx="2"/>
    <text x="43.5" y="168.16666666666666" font-size="11" fill="#5a4830" text-anchor="middle">主卧</text>
    <rect x="87" y="70" width="84" height="189" fill="#d4f1d4" stroke="#8b6f47" stroke-width="1.2" rx="2"/>
    <text x="129.0" y="168.16666666666666" font-size="11" fill="#5a4830" text-anchor="middle">空中花园</text>
    <rect x="171" y="70" width="49" height="189" fill="#faf8f5" stroke="#8b6f47" stroke-width="1.2" rx="2"/>
    <text x="195.5" y="167.16666666666666" font-size="8" fill="#5a4830" text-anchor="middle">电梯前室</text>
    <rect x="220" y="70" width="51" height="90" fill="#e0e0e0" stroke="#8b6f47" stroke-width="1.2" rx="2"/>
    <text x="245.5" y="117.66666666666667" font-size="8" fill="#5a4830" text-anchor="middle">设备平台</text>
    <rect x="271" y="70" width="72" height="165" fill="#fff8e0" stroke="#8b6f47" stroke-width="1.2" rx="2"/>
    <text x="307.0" y="156.16666666666666" font-size="11" fill="#5a4830" text-anchor="middle">厨房</text>
    <rect x="343" y="70" width="45" height="165" fill="#fff8e0" stroke="#8b6f47" stroke-width="1.2" rx="2"/>
    <text x="365.5" y="154.83333333333334" font-size="7" fill="#5a4830" text-anchor="middle">餐厅</text>
    <rect x="388" y="70" width="162" height="111" fill="#d4f1d4" stroke="#8b6f47" stroke-width="1.2" rx="2"/>
    <text x="469.0" y="129.16666666666666" font-size="11" fill="#5a4830" text-anchor="middle">空中花园</text>
    <rect x="550" y="70" width="121" height="165" fill="#fffbe0" stroke="#8b6f47" stroke-width="1.2" rx="2"/>
    <text x="610.5" y="156.16666666666666" font-size="11" fill="#5a4830" text-anchor="middle">客厅</text>
    <rect x="220" y="160" width="51" height="36" fill="#e8f4f8" stroke="#8b6f47" stroke-width="1.2" rx="2"/>
    <text x="245.5" y="180.66666666666666" font-size="8" fill="#5a4830" text-anchor="middle">卫</text>
    <rect x="271" y="235" width="105" height="165" fill="#fffbe0" stroke="#8b6f47" stroke-width="1.2" rx="2"/>
    <text x="323.5" y="321.1666666666667" font-size="11" fill="#5a4830" text-anchor="middle">客厅</text>
    <rect x="376" y="235" width="54" height="165" fill="#ffe8d8" stroke="#8b6f47" stroke-width="1.2" rx="2"/>
    <text x="403.0" y="320.5" font-size="9" fill="#5a4830" text-anchor="middle">主卧</text>
    <rect x="430" y="235" width="120" height="165" fill="#ffe8d8" stroke="#8b6f47" stroke-width="1.2" rx="2"/>
    <text x="490.0" y="321.1666666666667" font-size="11" fill="#5a4830" text-anchor="middle">主卧</text>
    <rect x="550" y="235" width="121" height="165" fill="#ffe8d8" stroke="#8b6f47" stroke-width="1.2" rx="2"/>
    <text x="610.5" y="321.1666666666667" font-size="11" fill="#5a4830" text-anchor="middle">主卧</text>
    <rect x="0" y="259" width="162" height="60" fill="#f0e8d8" stroke="#8b6f47" stroke-width="1.2" rx="2"/>
    <text x="81.0" y="292.6666666666667" font-size="11" fill="#5a4830" text-anchor="middle">衣帽间</text>
    <rect x="162" y="259" width="108" height="60" fill="#e8f4f8" stroke="#8b6f47" stroke-width="1.2" rx="2"/>
    <text x="216.0" y="292.6666666666667" font-size="11" fill="#5a4830" text-anchor="middle">卫</text>
    <rect x="270" y="259" width="96" height="141" fill="#ffe8d8" stroke="#8b6f47" stroke-width="1.2" rx="2"/>
    <text x="318.0" y="333.1666666666667" font-size="11" fill="#5a4830" text-anchor="middle">主卧</text>
    <rect x="366" y="259" width="54" height="141" fill="#e8f4f8" stroke="#8b6f47" stroke-width="1.2" rx="2"/>
    <text x="393.0" y="332.5" font-size="9" fill="#5a4830" text-anchor="middle">卫</text>
    <rect x="420" y="259" width="135" height="141" fill="#ffe8d8" stroke="#8b6f47" stroke-width="1.2" rx="2"/>
    <text x="487.5" y="333.1666666666667" font-size="11" fill="#5a4830" text-anchor="middle">主卧</text>
    <rect x="555" y="259" width="117" height="141" fill="#fffbe0" stroke="#8b6f47" stroke-width="1.2" rx="2"/>
    <text x="613.5" y="333.1666666666667" font-size="11" fill="#5a4830" text-anchor="middle">客厅</text>
    <text x="3336.0" y="6315" font-size="11" fill="#bbb" text-anchor="middle">（简化示意图，以售楼处公示为准）</text>
</svg>